<svg xmlns="http://www.w3.org/2000/svg" viewBox="0 0 61.54 28.39"><defs><style>.a{fill:#cbd9fe;}.b{fill:#41589a;}.c{fill:#415998;}.d{fill:#425697;}.e{fill:#42579b;}.f{fill:#435898;}.g{fill:#44599a;}.h{fill:#415897;}.i{fill:#40589a;}.j{fill:#42569a;}.k{fill:#405695;}.l{fill:#435699;}.m{fill:#435a9a;}.n{fill:#425699;}.o{fill:#44569a;}.p{fill:#415597;}.q{fill:#425797;}.r{fill:#425897;}.s{fill:#435998;}.t{fill:#3f5497;}.u{fill:#415696;}.v{fill:#415699;}.w{fill:#415497;}.x{fill:#425498;}.y{fill:#415697;}.z{fill:#3e5598;}.aa{fill:#ccd9fd;}.ab{fill:#dfe5fc;}.ac{fill:#6a9be6;}.ad{fill:#2d4877;}</style></defs><path class="a" d="M17.74,28.35c-.25,0-.36,0-.43-.3a1.18,1.18,0,0,0-1.21-1,1.15,1.15,0,0,0-1.17,1c0,.28-.14.38-.44.38-4.41,0-8.81,0-13.21,0A1.29,1.29,0,0,1,0,27.1Q0,14.17,0,1.24A1.17,1.17,0,0,1,1.23,0h13.3c.25,0,.36.07.41.32A1.24,1.24,0,0,0,16,1.3,1.26,1.26,0,0,0,17.28.42c.07-.24.11-.5.46-.4a.48.48,0,0,1,.13.41,9.21,9.21,0,0,0,0,1.05V27.17c0,.26,0,.51,0,.77A.47.47,0,0,1,17.74,28.35Z"/><path class="b" d="M16.61,18.07c0,.19-.08.31-.26.33a.29.29,0,1,1,0-.57A.25.25,0,0,1,16.61,18.07Z"/><path class="c" d="M16.61,14.21c0,.17-.09.28-.27.28s-.29-.11-.29-.3a.24.24,0,0,1,.28-.26A.26.26,0,0,1,16.61,14.21Z"/><path class="d" d="M16.33,6.7c-.17,0-.29-.1-.29-.28a.27.27,0,0,1,.31-.29.26.26,0,0,1,.26.29C16.61,6.61,16.5,6.69,16.33,6.7Z"/><path class="e" d="M16.61,19.1a.26.26,0,0,1-.28.27.25.25,0,0,1-.28-.28.26.26,0,0,1,.29-.29C16.52,18.8,16.6,18.92,16.61,19.1Z"/><path class="f" d="M16.27,2.79a.24.24,0,0,1-.22-.28.28.28,0,1,1,.56,0C16.6,2.7,16.5,2.8,16.27,2.79Z"/><path class="g" d="M16.32,23.27c-.16,0-.28-.1-.28-.28a.27.27,0,0,1,.31-.29.25.25,0,0,1,.26.3A.26.26,0,0,1,16.32,23.27Z"/><path class="h" d="M16.61,9.35c0,.17-.11.28-.29.27a.26.26,0,0,1-.27-.31.25.25,0,0,1,.3-.25A.26.26,0,0,1,16.61,9.35Z"/><path class="i" d="M16.62,13.22c0,.22-.13.3-.3.3a.26.26,0,0,1-.28-.28.26.26,0,0,1,.31-.28A.27.27,0,0,1,16.62,13.22Z"/><path class="j" d="M16.62,5.43c0,.15-.09.29-.27.29a.26.26,0,0,1-.3-.28.24.24,0,0,1,.27-.28C16.49,5.15,16.59,5.25,16.62,5.43Z"/><path class="k" d="M16.61,10.3c0,.16-.07.28-.26.29a.25.25,0,0,1-.3-.28.28.28,0,0,1,.56,0Z"/><path class="l" d="M16.62,22c0,.17-.12.28-.3.27a.26.26,0,0,1-.27-.29.26.26,0,0,1,.3-.28C16.53,21.74,16.6,21.86,16.62,22Z"/><path class="m" d="M16.32,14.89c.16,0,.29.09.29.28a.25.25,0,0,1-.26.29c-.19,0-.3-.08-.3-.27A.28.28,0,0,1,16.32,14.89Z"/><path class="n" d="M16.62,25.9c0,.16-.1.29-.28.3a.27.27,0,0,1-.29-.3.25.25,0,0,1,.28-.27C16.51,25.63,16.59,25.73,16.62,25.9Z"/><path class="o" d="M16.29,7.66A.25.25,0,0,1,16,7.38a.29.29,0,1,1,.57,0C16.6,7.57,16.49,7.66,16.29,7.66Z"/><path class="p" d="M16.61,3.5a.25.25,0,0,1-.28.26c-.18,0-.28-.09-.28-.26a.28.28,0,1,1,.56,0Z"/><path class="q" d="M16.29,24.66c.2,0,.31.08.32.26a.26.26,0,0,1-.29.3.27.27,0,0,1-.28-.28A.26.26,0,0,1,16.29,24.66Z"/><path class="r" d="M16.32,21.33c-.16,0-.28-.12-.28-.29a.26.26,0,0,1,.31-.28.25.25,0,0,1,.26.29A.29.29,0,0,1,16.32,21.33Z"/><path class="s" d="M16.37,16.86c.13,0,.23.09.24.27a.26.26,0,0,1-.29.29.25.25,0,0,1-.27-.28C16.05,17,16.14,16.86,16.37,16.86Z"/><path class="t" d="M16.34,8.65c-.17,0-.29-.1-.29-.28a.25.25,0,0,1,.29-.29.26.26,0,0,1,.27.29A.27.27,0,0,1,16.34,8.65Z"/><path class="u" d="M16.31,15.88c.17,0,.29.07.3.26a.26.26,0,0,1-.25.3.27.27,0,0,1-.32-.27C16,16,16.15,15.91,16.31,15.88Z"/><path class="v" d="M16.3,11.56a.24.24,0,0,1-.25-.28.27.27,0,0,1,.31-.28.26.26,0,0,1,.25.3C16.6,11.48,16.49,11.56,16.3,11.56Z"/><path class="w" d="M16.33,23.68c.18,0,.29.1.28.28a.26.26,0,0,1-.29.27.25.25,0,0,1-.27-.28A.27.27,0,0,1,16.33,23.68Z"/><path class="x" d="M16.3,19.79c.2,0,.31.07.31.26a.27.27,0,0,1-.28.29.27.27,0,0,1-.29-.27A.26.26,0,0,1,16.3,19.79Z"/><path class="y" d="M16.33,4.18a.28.28,0,0,1,.28.29c0,.18-.11.26-.28.26a.25.25,0,0,1-.28-.27C16.05,4.28,16.16,4.2,16.33,4.18Z"/><path class="z" d="M16.32,12c.18,0,.29.11.29.29a.24.24,0,0,1-.28.26.25.25,0,0,1-.28-.27A.27.27,0,0,1,16.32,12Z"/><rect class="aa" x="19.68" y="0.05" width="1.68" height="28.27"/><rect class="ab" x="17.84" y="0.07" width="1.79" height="28.27"/><rect class="ab" x="21.31" y="0.08" width="1.68" height="28.27"/><rect class="ab" x="24.66" y="0.05" width="1.68" height="28.27"/><rect class="ab" x="28.01" y="0.08" width="1.68" height="28.27"/><rect class="ab" x="31.37" y="0.08" width="1.68" height="28.27"/><rect class="ab" x="34.72" y="0.08" width="1.68" height="28.27"/><rect class="ab" x="38.07" y="0.05" width="1.68" height="28.27"/><rect class="ab" x="41.42" y="0.08" width="1.68" height="28.27"/><rect class="ab" x="44.78" y="0.05" width="1.68" height="28.27"/><rect class="ab" x="48.13" y="0.05" width="1.68" height="28.27"/><rect class="ab" x="51.48" y="0.08" width="1.68" height="28.27"/><rect class="ab" x="54.83" y="0.08" width="1.68" height="28.27"/><rect class="ab" x="58.18" y="0.05" width="1.68" height="28.27"/><rect class="aa" x="22.98" y="0.05" width="1.68" height="28.27"/><rect class="aa" x="26.34" y="0.05" width="1.68" height="28.27"/><rect class="aa" x="29.69" y="0.08" width="1.68" height="28.27"/><rect class="aa" x="33.04" y="0.08" width="1.68" height="28.27"/><rect class="aa" x="36.39" y="0.08" width="1.68" height="28.27"/><rect class="aa" x="39.75" y="0.08" width="1.68" height="28.27"/><rect class="aa" x="43.1" y="0.05" width="1.68" height="28.27"/><rect class="aa" x="46.45" y="0.05" width="1.68" height="28.27"/><rect class="aa" x="49.8" y="0.05" width="1.68" height="28.27"/><rect class="aa" x="53.16" y="0.08" width="1.68" height="28.27"/><rect class="aa" x="56.51" y="0.08" width="1.68" height="28.27"/><path class="aa" d="M59.86,0h.83a.85.85,0,0,1,.85.85V27.54a.85.85,0,0,1-.85.85h-.83a0,0,0,0,1,0,0V0A0,0,0,0,1,59.86,0Z"/><rect class="ac" x="20.01" y="2.1" width="39.48" height="24.16" rx="1.02"/><path class="ad" d="M58.47,2.48a.64.64,0,0,1,.64.64V25.25a.64.64,0,0,1-.64.64H21a.64.64,0,0,1-.64-.64V3.12A.64.64,0,0,1,21,2.48H58.47m0-.75H21a1.39,1.39,0,0,0-1.39,1.39V25.25A1.4,1.4,0,0,0,21,26.64H58.47a1.39,1.39,0,0,0,1.39-1.39V3.12a1.39,1.39,0,0,0-1.39-1.39Z"/></svg>