<svg id="Layer_2" data-name="Layer 2" xmlns="http://www.w3.org/2000/svg" width="41.091" height="41.091" viewBox="0 0 41.091 41.091">
  <g id="invisible_box" data-name="invisible box" transform="translate(0 0)">
    <rect id="Rectangle_1358" data-name="Rectangle 1358" width="41.091" height="41.091" fill="none"/>
  </g>
  <g id="Layer_7" data-name="Layer 7" transform="translate(1.713 6.794)">
    <path id="Path_20553" data-name="Path 20553" d="M10.059,19.746l-.943,2.4H11Zm0,0-.943,2.4H11ZM37.153,8H4.572A2.486,2.486,0,0,0,2,10.572V32.864a2.572,2.572,0,0,0,2.572,2.572H37.153a2.572,2.572,0,0,0,2.572-2.572V10.572A2.486,2.486,0,0,0,37.153,8ZM22.491,25.147H20.948V20.175L18.8,25.147H17.433l-2.143-5.059v5.059H12.2L11.6,23.6H8.516l-.6,1.543H6.287L9.03,18.288h2.058l2.658,6.6v-6.6h2.486l1.886,4.544L20,18.288h2.486Zm12.947,0H33.466l-1.8-2.315-1.886,2.315H23.863V18.288h6.087l1.715,2.143,1.8-2.143h1.972l-2.744,3.344Zm-10.031-5.4v1.286h3.43v1.286h-3.43V23.69h3.6l1.715-2.058-1.543-1.886Zm-16.29,2.4H11l-.943-2.4Z" transform="translate(-1.998 -7.998)" fill="#4c4c4c"/>
  </g>
</svg>
