<svg id="Layer_2" data-name="Layer 2" xmlns="http://www.w3.org/2000/svg" width="41.091" height="41.091" viewBox="0 0 41.091 41.091">
  <g id="invisible_box" data-name="invisible box" transform="translate(0)">
    <rect id="Rectangle_1357" data-name="Rectangle 1357" width="41.091" height="41.091" fill="none"/>
  </g>
  <g id="Layer_7" data-name="Layer 7" transform="translate(1.635 6.85)">
    <path id="Path_20552" data-name="Path 20552" d="M37.112,8H4.569A2.484,2.484,0,0,0,2,10.569V32.835A2.569,2.569,0,0,0,4.569,35.4H37.112a2.569,2.569,0,0,0,2.569-2.569V10.569A2.484,2.484,0,0,0,37.112,8ZM25.122,28.981a7.536,7.536,0,0,1-4.282-1.37,7.279,7.279,0,1,1,0-11.818,7.536,7.536,0,0,1,4.282-1.37,7.279,7.279,0,1,1,0,14.559Zm0-11.989a5.138,5.138,0,0,0-2.484.685,7.365,7.365,0,0,1,0,8.05,5.138,5.138,0,0,0,2.484.685,4.71,4.71,0,0,0,0-9.42Zm-8.564,0a4.71,4.71,0,1,0,4.71,4.71A4.71,4.71,0,0,0,16.558,16.992Z" transform="translate(-1.998 -7.998)" fill="#4c4c4c"/>
  </g>
</svg>
