<svg id="Group_1296" data-name="Group 1296" xmlns="http://www.w3.org/2000/svg" xmlns:xlink="http://www.w3.org/1999/xlink" width="34.616" height="34.616" viewBox="0 0 34.616 34.616">
  <defs>
    <clipPath id="clip-path">
      <rect id="Rectangle_1355" data-name="Rectangle 1355" width="34.616" height="34.616" fill="#4c4c4c"/>
    </clipPath>
  </defs>
  <g id="Group_1295" data-name="Group 1295" clip-path="url(#clip-path)">
    <path id="Path_20546" data-name="Path 20546" d="M182.1,43.41a5.025,5.025,0,0,1,3.293,1.337A5.124,5.124,0,0,0,182.1,43.41" transform="translate(-163.94 -39.081)" fill="#4c4c4c"/>
    <path id="Path_20547" data-name="Path 20547" d="M299.49,326.493a1.442,1.442,0,0,0,.177-.213,1.356,1.356,0,0,1-.177.213" transform="translate(-269.624 -293.742)" fill="#4c4c4c"/>
    <path id="Path_20548" data-name="Path 20548" d="M299.667,134.623a1.393,1.393,0,0,0-.177-.213,1.356,1.356,0,0,1,.177.213" transform="translate(-269.624 -121.006)" fill="#4c4c4c"/>
    <path id="Path_20549" data-name="Path 20549" d="M69.21,26.816a1.343,1.343,0,0,0-.1-.181,1.394,1.394,0,0,0-.177-.213,1.285,1.285,0,0,0-.1-.093c-.035-.03-.072-.057-.11-.084l-.06-.037a1.3,1.3,0,0,0-.122-.067l-.065-.029c-.043-.018-.087-.035-.132-.049a1.456,1.456,0,0,0-.43-.065H65.025V22.393a7.934,7.934,0,0,0-7.931-7.933H55.648a7.934,7.934,0,0,0-7.931,7.933V26H44.832a1.449,1.449,0,0,0-.429.065c-.045.014-.089.031-.132.049-.022.009-.044.018-.065.029a1.3,1.3,0,0,0-.122.067c-.02.011-.04.024-.06.037-.038.027-.075.054-.11.084a.992.992,0,0,0-.1.093l-.048.049h0c-.016.017-.031.034-.045.052s-.03.036-.044.055l-.04.057a1.343,1.343,0,0,0-.1.181,1.431,1.431,0,0,0-.143.625V44.75a1.424,1.424,0,0,0,.143.624,1.355,1.355,0,0,0,.1.181l.04.057c.014.019.029.037.044.055q.043.052.093.1a.991.991,0,0,0,.1.093c.035.03.072.057.11.084.02.013.04.026.06.037a1.3,1.3,0,0,0,.122.067c.021.011.043.02.065.029.043.018.087.035.132.049a1.449,1.449,0,0,0,.429.065H67.909a1.456,1.456,0,0,0,.43-.065c.045-.014.089-.031.132-.049l.065-.029a1.3,1.3,0,0,0,.122-.067l.06-.037c.038-.027.075-.054.11-.084a1.286,1.286,0,0,0,.1-.093,1.444,1.444,0,0,0,.177-.213,1.355,1.355,0,0,0,.1-.181,1.424,1.424,0,0,0,.143-.624V27.441a1.431,1.431,0,0,0-.143-.625M61.371,33.4l-6.336,6.336c-.019.021-.04.042-.061.061a1,1,0,0,1-1.417-.061l-2.112-2.059a1.109,1.109,0,0,1-.106-1.426.987.987,0,0,1,.168-.191,1,1,0,0,1,1.416.087L54.3,37.523l5.6-5.6A1.056,1.056,0,0,1,61.371,33.4M62.14,26H50.6V22.393a5.029,5.029,0,0,1,1.442-3.533c.03-.03.06-.06.091-.089s.061-.059.092-.087a5.025,5.025,0,0,1,3.293-1.337l.13,0h1.443l.131,0a5.025,5.025,0,0,1,3.293,1.337c.031.028.062.057.092.087s.06.058.091.089a5.029,5.029,0,0,1,1.442,3.533Z" transform="translate(-39.063 -13.018)" fill="#4c4c4c"/>
    <path id="Path_20550" data-name="Path 20550" d="M135.293,43.41A5.124,5.124,0,0,0,132,44.747a5.025,5.025,0,0,1,3.293-1.337" transform="translate(-118.836 -39.081)" fill="#4c4c4c"/>
  </g>
</svg>
