<svg id="Layer_2" data-name="Layer 2" xmlns="http://www.w3.org/2000/svg" width="41.091" height="41.091" viewBox="0 0 41.091 41.091">
  <g id="invisible_box" data-name="invisible box">
    <rect id="Rectangle_1356" data-name="Rectangle 1356" width="41.091" height="41.091" fill="none"/>
  </g>
  <g id="Layer_7" data-name="Layer 7" transform="translate(1.711 6.85)">
    <path id="Path_20551" data-name="Path 20551" d="M37.112,8H4.569A2.484,2.484,0,0,0,2,10.569V32.835A2.569,2.569,0,0,0,4.569,35.4H37.112a2.569,2.569,0,0,0,2.569-2.569V10.569A2.484,2.484,0,0,0,37.112,8ZM7.138,17.591l.257-.171h2.4a.942.942,0,0,1,1.028.685h0l.428,2.055c0,.171,0,.257-.171.343h-.257a7.536,7.536,0,0,0-3.511-2.484.428.428,0,0,1-.171-.428Zm5.738,8.393H10.735a.171.171,0,0,1-.171-.171L8.68,19.561c0-.086,0-.257.171-.257h.257a8.05,8.05,0,0,1,2.569,3.083h0l.257.856,2.227-5.652c0-.086.086-.171.257-.171H16.3c.086,0,.086.086.171.171s.086.171,0,.171l-3.426,8.05a.171.171,0,0,1-.171.171Zm5.567-.257c0,.171-.086.257-.171.257H16.216v-.257l1.37-7.964a.257.257,0,0,1,.257-.257h1.97v.257Zm6.08-4.8c1.285.514,1.884,1.285,1.884,2.227a2.484,2.484,0,0,1-1.113,2.055,5.31,5.31,0,0,1-2.826.771,8.564,8.564,0,0,1-2.227-.428c-.171,0-.257-.171-.171-.257l.171-1.285a.171.171,0,0,1,.171-.171h.257a3.854,3.854,0,0,0,2.055.428c.6,0,1.285-.171,1.285-.771s-.257-.6-1.113-1.028-1.97-1.028-1.97-2.227,1.541-2.826,3.768-2.826a8.136,8.136,0,0,1,1.8.257.428.428,0,0,1,.171.343l-.257,1.2c0,.086,0,.171-.086.171h-.257a2.74,2.74,0,0,0-1.456-.343h-.086c-.856,0-1.285.343-1.285.771s.514.685,1.285,1.113ZM34.457,25.9c0,.086-.086.086-.171.086H32.658l-.257-.171a5.224,5.224,0,0,0-.257-1.113H29.233c-.086.086-.171.514-.428,1.113s-.086.171-.257.171H26.492a.171.171,0,0,1,0-.257l3.254-7.451a1.2,1.2,0,0,1,1.2-.771h1.627c.086,0,.171.086.171.257l1.8,7.879a.343.343,0,0,1-.086.257Zm-3.34-6.166-1.2,3.254H31.8L31.288,20.5Z" transform="translate(-1.998 -7.998)" fill="#4c4c4c"/>
  </g>
</svg>
